<svg xmlns="http://www.w3.org/2000/svg" width="895.056" height="331.252" viewBox="0 0 895.056 331.252">
  <title>Asset 4</title>
  <g>
    <g>
      <path d="M46.29,3.088v8.747H30.267V54.54H20.344v-42.7H4.32V3.088Z" fill="#4d4d4d"/>
      <path d="M91.567,29.99V54.54H81.938V32.783c0-5.512-3.308-8.894-8.748-8.894-6.469.073-10.364,4.852-10.364,11.32V54.54H53.27V0h9.556V22.713c2.793-5.366,7.718-7.791,14.186-7.865C86.053,14.848,91.567,20.655,91.567,29.99Z" fill="#4d4d4d"/>
      <path d="M131.035,41.751,136.62,46.9a21.626,21.626,0,0,1-17.272,8.012c-12.277,0-20.655-8.012-20.655-19.993,0-11.688,7.718-19.919,19.92-19.993,10.952-.147,18.3,6.615,18.817,17.567l-28.006,7.939a11.052,11.052,0,0,0,10.584,6.836C124.125,47.264,127.947,45.353,131.035,41.751Zm-22.713-7.719L128.1,28.373c-1.618-4.117-4.631-5.954-8.968-5.954C112.585,22.419,108.469,26.461,108.322,34.032Z" fill="#4d4d4d"/>
      <path d="M76.631,202.774c-10.407,0-22.4-1.234-34.751-1.234H39.236c-23.461,0-33.692,1.234-37.749,1.234-1.058,0-1.411-.529-1.411-3.7s.353-3.706,1.411-3.881l7.762-1.236c1.764-.351,2.116-.705,2.116-2.469V84.592c0-1.764-.352-2.117-2.116-2.469L1.487,80.887c-1.058-.175-1.411-.7-1.411-3.88s.353-3.7,1.411-3.7c4.057,0,20.638,1.235,37.043,1.235h3.7c7.057,0,27.164-1.235,34.4-1.235,44.8,0,70.733,27.87,70.733,64.559C147.364,181.431,111.381,202.774,76.631,202.774Zm21.343-51.5c0-27.7-6.7-47.979-19.051-60.328-7.054-7.055-12.524-9-19.05-9h-.706c-1.763,0-2.116.353-2.116,2.116v98.956c0,4.94.707,6.351,2.646,8.291a9.849,9.849,0,0,0,7.056,2.822C87.39,194.131,97.974,173.67,97.974,151.269Z" fill="#4d4d4d"/>
      <path d="M203.638,204.362c-26.283,0-46.567-17.992-46.567-45.861,0-28.4,21.344-47.274,52.742-47.274,26.282,0,40.57,12.7,40.57,29.634a18.568,18.568,0,0,1-.354,4.586,1.832,1.832,0,0,1-1.939,1.235c-13.936.705-34.045,1.058-50.8.53,2.644,8.818,7.407,17.285,12.346,22.225,6.7,6.7,11.467,8.467,17.816,8.467,7.232,0,12.347-3,17.11-7.233,1.588-1.411,6,1.941,5.292,3.7C242.621,192.368,222.69,204.362,203.638,204.362ZM196.23,143.33l5.644-.705c8.114-.883,11.819-6.7,11.819-15.7,0-6.7-2.822-10.231-7.762-10.231-5.468,0-10.936,4.94-10.936,15.523A61.1,61.1,0,0,0,196.23,143.33Z" fill="#4d4d4d"/>
      <path d="M341.878,263.162c-20.228,0-37.868-6.116-50.1-15.289a153.041,153.041,0,0,0-15.758,13.642c-1.175,1.176-1.646,1.411-2.588,1.411-2.351,0-6.82-1.88-6.82-3.057,0-2.823,2.353-12.465,2.353-35.516V125.8c0-2.351-.471-2.587-2.823-3.058l-8-1.411c-1.409-.234-1.88-.7-1.88-4.469,0-3.527.471-4,1.88-4.468,19.288-7.527,40.221-19.522,59.038-32.458a3.121,3.121,0,0,1,1.881-.706c1.647,0,6.115,1.882,6.115,3.528,0,4-1.88,19.993-1.88,48.922v31.283c8.231-16.23,21.873-23.05,36.926-23.05,24.46,0,48.922,19.757,48.922,58.8C409.146,239.642,380.686,263.162,341.878,263.162Zm7.056-7.527c4.939,0,8.233-4.469,8.233-12.935,0-20.7-12.7-58.566-25.4-71.268-2.352-2.351-4-2.822-5.645-2.822a4.518,4.518,0,0,0-2.822.94v27.99c0,22.344,9.173,46.1,17.169,54.1C343.525,254.7,345.641,255.635,348.934,255.635Z" fill="#4d4d4d"/>
      <path d="M503.223,261.986c-5.409,0-20.7-1.647-44.924-1.647-17.171,0-32.693,1.647-38.1,1.647-1.411,0-1.882-.471-1.882-4.94s.471-4.939,1.882-5.173l8-1.647c2.351-.471,2.822-.706,2.822-3.058V185.074c0-2.351-.471-2.587-2.822-3.058l-8-1.411c-1.411-.235-1.882-.706-1.882-4.469,0-3.528.471-4,1.882-4.468,19.287-7.527,37.633-19.051,56.45-32.459a3.128,3.128,0,0,1,1.881-.705c1.646,0,6.115,1.882,6.115,3.528,0,3.763-.94,22.814-.94,38.1,7.055-22.815,20.228-40.219,34.575-40.219,14.111,0,20.462,10.584,20.462,23.52,0,22.345-12.936,33.4-23.991,33.4-4.233,0-7.76-1.411-12.935-4.94-5.646-4-10.349-6.114-13.407-6.114a5.333,5.333,0,0,0-3.058.705v60.683c0,2.352.471,2.823,2.823,3.058l15.053,1.647c1.411.234,1.88.94,1.88,5.173S504.634,261.986,503.223,261.986Z" fill="#4d4d4d"/>
      <path d="M541.554,257.046c0-4.233.471-4.939,1.882-5.173l8-1.647c2.351-.471,2.822-.942,2.822-3.293V185.074c0-2.351-.471-2.587-2.822-3.058l-8-1.411c-1.411-.235-1.882-.706-1.882-4.469,0-3.528.471-4,1.882-4.468,19.287-7.527,40.22-19.522,59.037-32.459a3.13,3.13,0,0,1,1.882-.705c1.647,0,6.114,1.882,6.114,3.528,0,4-1.881,19.992-1.881,48.922v55.979c0,2.351.471,2.822,2.823,3.293l8,1.647c1.411.234,1.882.94,1.882,5.173s-.471,4.94-1.882,4.94c-5.41,0-20.7-1.647-37.868-1.647s-32.928,1.647-38.1,1.647C542.025,261.986,541.554,261.28,541.554,257.046Zm16-156.175c0-15.288,11.289-27.048,27.049-27.048s27.048,11.76,27.048,27.048S600.357,127.92,584.6,127.92,557.549,116.16,557.549,100.871Z" fill="#4d4d4d"/>
      <path d="M693.021,264.1c-35.044,0-62.093-23.991-62.093-61.153,0-37.868,28.458-63.034,70.326-63.034,35.046,0,54.1,16.935,54.1,39.515a24.824,24.824,0,0,1-.471,6.115,2.443,2.443,0,0,1-2.587,1.647c-18.58.94-45.394,1.411-67.739.7,3.529,11.76,9.88,23.051,16.465,29.636,8.937,8.939,15.288,11.29,23.755,11.29,9.644,0,16.464-4,22.815-9.644,2.116-1.88,8,2.588,7.057,4.94C745,248.109,718.424,264.1,693.021,264.1Zm-9.878-81.379,7.527-.942c10.818-1.176,15.759-8.938,15.759-20.933,0-8.938-3.764-13.642-10.35-13.642-7.291,0-14.582,6.586-14.582,20.7A81.741,81.741,0,0,0,683.143,182.723Z" fill="#4d4d4d"/>
      <path d="M841.666,261.986c-5.411,0-20.7-1.647-37.87-1.647s-32.693,1.647-38.1,1.647c-1.411,0-1.882-.706-1.882-4.94s.471-4.939,1.882-5.173l8-1.647c2.353-.471,2.822-.706,2.822-3.058V158.5c0-2.353-.234-2.823-2.822-3.058l-12.231-1.177c-1.645-.234-1.88-.941-1.88-4.939,0-4.233.47-4.939,1.88-5.175l15.053-1.411v-.7c0-38.81,36.693-62.8,80.441-62.8,20.228,0,38.1,12.937,38.1,27.99,0,10.584-9.408,17.875-20.227,17.875-6.35,0-11.761-3.293-16.7-12.937l-8-15.993c-3.528-7.056-5.88-8.467-8.937-8.467-5.88,0-10.351,7.527-10.351,25.637V141.8c6.351,0,15.289-.236,22.581-.236,2.352,0,3.294,1.176,3.294,7.527s-.942,7.056-3.294,7.056c-7.527,0-15.288,0-22.581-.236v91.26c0,2.352.471,2.587,2.823,3.058l8,1.647c1.409.234,1.88.94,1.88,5.173S843.075,261.986,841.666,261.986Z" fill="#4d4d4d"/>
      <path d="M420.421,303.915c0,9.406-5.938,14.874-16.285,14.874h-9V330.9h-7.877V289.746h16.872C414.483,289.746,420.421,294.861,420.421,303.915Zm-7.465.234c0-5.056-3.352-7.525-9.231-7.525h-8.584v15.227h8.584C409.6,311.851,412.956,309.323,412.956,304.149Z" fill="#4d4d4d"/>
      <path d="M467.577,310.322c0,11.817-9.525,20.93-21.928,20.93s-21.929-9.113-21.929-20.93c0-11.875,9.523-20.811,21.929-20.811S467.577,298.506,467.577,310.322Zm-35.8,0A13.963,13.963,0,0,0,445.767,324.2a13.817,13.817,0,1,0-13.994-13.875Z" fill="#4d4d4d"/>
      <path d="M513.088,310.322c0,11.994-9.053,20.577-21.752,20.577H474.522V289.746h17.107C504.093,289.746,513.088,298.271,513.088,310.322Zm-8.054.059c0-8.053-5.819-13.7-13.522-13.7H482.4v27.28h9.407C499.39,323.963,505.034,318.377,505.034,310.381Z" fill="#4d4d4d"/>
      <path d="M537.2,296.506a13.67,13.67,0,1,0,0,27.339,16.477,16.477,0,0,0,11.171-4.822l4.644,5.174a23.472,23.472,0,0,1-16.226,7.055c-12.11,0-21.458-9.113-21.458-20.989,0-11.757,9.466-20.752,21.751-20.752a22.871,22.871,0,0,1,15.875,6.585l-4.586,5.761A15.456,15.456,0,0,0,537.2,296.506Z" fill="#4d4d4d"/>
      <path d="M585.944,322.2H565.838l-3.646,8.7h-8.171l18.047-41.153h8.173L598.054,330.9h-8.466Zm-2.822-6.761-7.172-17.284-7.29,17.284Z" fill="#4d4d4d"/>
      <path d="M616.286,296.565c-3.7,0-6.113,1.353-6.113,3.881,0,8.349,22.105,3.821,22.046,18.577,0,7.7-6.7,12.17-15.755,12.17a26.726,26.726,0,0,1-17.4-6.584l3.292-6.644c4.233,3.762,9.818,6.055,14.228,6.055s7.054-1.645,7.054-4.526c0-8.583-22.105-3.7-22.105-18.342,0-7.174,6.173-11.759,15.4-11.759a28.01,28.01,0,0,1,14.874,4.351l-3.174,6.819C624.224,297.918,619.461,296.565,616.286,296.565Z" fill="#4d4d4d"/>
      <path d="M668.674,289.746v7H655.858V330.9h-7.936V296.742H635.106v-7Z" fill="#4d4d4d"/>
    </g>
    <path d="M246.579,230.967H3.5a3.5,3.5,0,0,1,0-7H246.579a3.5,3.5,0,0,1,0,7Z" fill="#4d4d4d"/>
  </g>
</svg>
